<svg xmlns="http://www.w3.org/2000/svg" xmlns:xlink="http://www.w3.org/1999/xlink" width="500" zoomAndPan="magnify" viewBox="0 0 375 374.999991" height="500" preserveAspectRatio="xMidYMid meet" version="1.0"><defs><clipPath id="21a46482b9"><path d="M 53.65625 173.839844 L 321.035156 173.839844 L 321.035156 346.597656 L 53.65625 346.597656 Z M 53.65625 173.839844 " clip-rule="nonzero"/></clipPath><clipPath id="d411c59685"><path d="M 53.65625 347.257812 L 92.664062 347.257812 L 92.664062 365.019531 L 53.65625 365.019531 Z M 53.65625 347.257812 " clip-rule="nonzero"/></clipPath><clipPath id="79d75245e1"><path d="M 282.132812 347.257812 L 321.035156 347.257812 L 321.035156 365.019531 L 282.132812 365.019531 Z M 282.132812 347.257812 " clip-rule="nonzero"/></clipPath><clipPath id="36724482ed"><path d="M 132 10.273438 L 243 10.273438 L 243 89 L 132 89 Z M 132 10.273438 " clip-rule="nonzero"/></clipPath></defs><rect x="-37.5" width="450" fill="#ffffff" y="-37.499999" height="449.999989" fill-opacity="1"/><rect x="-37.5" width="450" fill="#ffffff" y="-37.499999" height="449.999989" fill-opacity="1"/><rect x="-37.5" width="450" fill="#ffffff" y="-37.499999" height="449.999989" fill-opacity="1"/><g clip-path="url(#21a46482b9)"><path fill="#2a3634" d="M 63.511719 313.957031 C 67.035156 310.738281 72.503906 310.332031 75.054688 310.332031 C 75.910156 310.332031 76.4375 310.378906 76.453125 310.378906 L 92.035156 312.5625 C 94.921875 313.867188 96.671875 315.738281 97.238281 318.132812 C 98.484375 323.414062 93.761719 330.210938 90.835938 333.789062 C 89.144531 335.855469 86.636719 337.042969 83.953125 337.042969 L 69.273438 337.042969 C 64.589844 337.042969 60.679688 333.382812 60.375 328.707031 C 60.25 326.84375 60.1875 324.6875 60.1875 322.304688 C 60.1875 318.777344 61.308594 315.96875 63.511719 313.957031 Z M 243.804688 300.417969 L 243.808594 300.417969 C 234.441406 301.355469 194.941406 303.855469 187.359375 304.171875 C 179.75 303.855469 140.253906 301.355469 130.886719 300.417969 C 125.789062 299.902344 118.992188 292.910156 115.734375 284.828125 C 113.3125 278.816406 113.4375 273.578125 116.082031 270.457031 C 121.429688 264.136719 137.894531 263.332031 145.976562 263.332031 C 148.699219 263.332031 150.472656 263.421875 150.546875 263.425781 L 224.164062 263.425781 C 224.433594 263.410156 251.460938 262.007812 258.609375 270.457031 C 261.253906 273.578125 261.378906 278.816406 258.957031 284.828125 C 255.699219 292.910156 248.902344 299.902344 243.804688 300.417969 Z M 267.039062 341.757812 C 266.875 342.105469 266.363281 342.054688 266.359375 342.054688 L 108.332031 342.054688 C 108.324219 342.054688 107.820312 342.105469 107.652344 341.761719 C 107.359375 341.152344 107.621094 338.792969 116.375 330.019531 C 126.539062 319.839844 138.527344 318.75 143.195312 318.75 C 144.4375 318.75 145.164062 318.828125 145.195312 318.832031 L 229.496094 318.832031 C 229.652344 318.8125 245.449219 317.128906 258.316406 330.019531 C 267.0625 338.78125 267.332031 341.152344 267.039062 341.757812 Z M 277.453125 318.132812 C 278.019531 315.738281 279.769531 313.867188 282.65625 312.5625 L 298.222656 310.382812 C 298.304688 310.371094 306.476562 309.664062 311.179688 313.957031 C 313.382812 315.96875 314.5 318.777344 314.5 322.304688 C 314.5 324.6875 314.441406 326.84375 314.316406 328.707031 C 314.011719 333.382812 310.101562 337.042969 305.417969 337.042969 L 290.738281 337.042969 C 288.054688 337.042969 285.546875 335.855469 283.855469 333.789062 C 280.929688 330.210938 276.207031 323.414062 277.453125 318.132812 Z M 303.308594 256.472656 C 306.683594 256.472656 309.742188 258.464844 310.980469 261.589844 C 311.511719 262.933594 311.859375 264.417969 312.085938 265.917969 C 312.347656 267.667969 312.433594 269.441406 312.433594 271.035156 C 312.433594 271.71875 312.417969 272.367188 312.390625 272.972656 C 312.261719 275.972656 310.824219 278.738281 308.441406 280.554688 C 294.101562 291.527344 271.964844 290.066406 265.523438 289.359375 C 264.742188 289.273438 264.171875 288.558594 264.253906 287.773438 C 266.789062 263.753906 291.621094 257.933594 302.179688 256.546875 C 302.558594 256.496094 302.933594 256.472656 303.308594 256.472656 Z M 277.765625 224.257812 C 277.503906 224.703125 277.042969 224.96875 276.523438 224.96875 L 98.167969 224.96875 C 97.652344 224.96875 97.1875 224.703125 96.925781 224.257812 C 96.664062 223.8125 96.660156 223.277344 96.914062 222.828125 C 101.609375 214.425781 117.558594 186.816406 125.632812 184.207031 C 132.53125 181.980469 161.480469 181.667969 177.160156 181.667969 C 183.148438 181.667969 187.203125 181.710938 187.347656 181.714844 C 187.867188 181.707031 239.523438 181.128906 249.058594 184.207031 C 257.132812 186.816406 273.082031 214.425781 277.777344 222.828125 C 278.03125 223.277344 278.027344 223.8125 277.765625 224.257812 Z M 72.511719 256.546875 C 74.65625 256.828125 77.390625 257.292969 80.40625 258.054688 C 81.332031 258.289062 82.289062 258.554688 83.261719 258.847656 C 83.992188 259.070312 84.730469 259.308594 85.476562 259.566406 C 86.46875 259.910156 87.476562 260.289062 88.484375 260.703125 C 88.734375 260.808594 88.988281 260.914062 89.238281 261.023438 C 99.066406 265.257812 108.894531 273.136719 110.4375 287.773438 C 110.449219 287.871094 110.449219 287.96875 110.4375 288.0625 C 110.375 288.730469 109.851562 289.28125 109.167969 289.359375 C 102.726562 290.066406 80.589844 291.527344 66.25 280.554688 C 63.871094 278.738281 62.429688 275.972656 62.300781 272.972656 C 62.164062 269.757812 62.296875 265.175781 63.714844 261.589844 C 64.953125 258.464844 68.007812 256.472656 71.386719 256.472656 C 71.757812 256.472656 72.132812 256.496094 72.511719 256.546875 Z M 63.683594 346.40625 L 311.007812 346.40625 C 311.007812 346.40625 321.011719 347.664062 321.011719 331.382812 L 321.011719 269.710938 C 321.011719 266.007812 319.820312 262.417969 317.632812 259.4375 C 313.855469 254.292969 306.269531 245.40625 291.847656 232.90625 L 291.691406 232.566406 C 292.984375 232.917969 297.796875 234.019531 307.257812 234.019531 C 313.28125 234.019531 314.738281 229.710938 314.789062 225.710938 C 314.851562 220.59375 311.46875 216.027344 306.5625 214.597656 C 301.183594 213.035156 294.859375 213.324219 291.40625 213.664062 C 289.925781 213.808594 288.800781 215.046875 288.800781 216.535156 C 288.8125 224.71875 289.714844 228.804688 290.4375 230.773438 C 286.253906 222.929688 268.546875 190.074219 261.953125 184.5625 C 254.457031 178.296875 247.898438 173.914062 240.394531 173.914062 C 232.898438 173.914062 187.347656 173.914062 187.347656 173.914062 C 187.347656 173.914062 141.792969 173.914062 134.296875 173.914062 C 126.792969 173.914062 120.234375 178.296875 112.738281 184.5625 C 106.148438 190.074219 88.4375 222.929688 84.253906 230.773438 C 84.976562 228.804688 85.878906 224.71875 85.890625 216.535156 C 85.890625 215.046875 84.765625 213.808594 83.285156 213.664062 C 79.832031 213.324219 73.511719 213.035156 68.128906 214.597656 C 63.222656 216.027344 59.839844 220.59375 59.902344 225.710938 C 59.953125 229.710938 61.410156 234.019531 67.433594 234.019531 C 76.894531 234.019531 81.707031 232.917969 83.003906 232.566406 L 82.84375 232.90625 C 68.421875 245.40625 60.835938 254.292969 57.058594 259.4375 C 54.875 262.417969 53.683594 266.007812 53.683594 269.710938 L 53.683594 331.382812 C 53.683594 347.664062 63.683594 346.40625 63.683594 346.40625 " fill-opacity="1" fill-rule="nonzero"/></g><g clip-path="url(#d411c59685)"><path fill="#2a3634" d="M 63.191406 351.617188 C 62.324219 351.617188 57.554688 351.421875 53.683594 347.460938 L 53.683594 356.425781 C 53.683594 356.425781 53.0625 364.566406 57.742188 364.875 C 62.433594 365.195312 85.890625 364.875 85.890625 364.875 C 85.890625 364.875 92.425781 365.816406 92.425781 357.367188 C 92.425781 354.992188 92.425781 353.105469 92.425781 351.59375 L 63.894531 351.59375 C 63.703125 351.609375 63.46875 351.617188 63.191406 351.617188 " fill-opacity="1" fill-rule="nonzero"/></g><g clip-path="url(#79d75245e1)"><path fill="#2a3634" d="M 321.011719 356.425781 L 321.011719 347.515625 C 320.859375 347.671875 320.707031 347.832031 320.550781 347.976562 C 317.054688 351.261719 313.054688 351.617188 311.5 351.617188 C 311.222656 351.617188 310.988281 351.609375 310.796875 351.59375 L 282.265625 351.59375 C 282.265625 353.105469 282.265625 354.992188 282.265625 357.367188 C 282.265625 365.816406 288.800781 364.875 288.800781 364.875 C 288.800781 364.875 312.257812 365.195312 316.949219 364.875 C 321.632812 364.566406 321.011719 356.425781 321.011719 356.425781 " fill-opacity="1" fill-rule="nonzero"/></g><g clip-path="url(#36724482ed)"><path fill="#2a3634" d="M 203.261719 59.203125 C 201.6875 58.941406 200.539062 57.566406 200.539062 55.96875 L 200.539062 13.558594 C 200.539062 11.746094 199.070312 10.273438 197.261719 10.273438 L 177.433594 10.273438 C 175.621094 10.273438 174.152344 11.746094 174.152344 13.558594 L 174.152344 55.96875 C 174.152344 57.566406 173.003906 58.941406 171.429688 59.203125 C 148.8125 62.980469 132.335938 74.59375 132.335938 88.335938 L 242.355469 88.335938 C 242.355469 74.59375 225.882812 62.980469 203.261719 59.203125 " fill-opacity="1" fill-rule="nonzero"/></g><path fill="#2a3634" d="M 190.625 109.121094 C 190.625 107.304688 189.15625 105.835938 187.347656 105.835938 C 185.535156 105.835938 184.070312 107.304688 184.070312 109.121094 L 184.070312 136.804688 C 184.070312 138.617188 185.535156 140.085938 187.347656 140.085938 C 189.15625 140.085938 190.625 138.617188 190.625 136.804688 L 190.625 109.121094 " fill-opacity="1" fill-rule="nonzero"/><path fill="#2a3634" d="M 187.347656 145.78125 C 185.972656 145.78125 184.855469 146.898438 184.855469 148.277344 L 184.855469 159.746094 C 184.855469 161.125 185.972656 162.242188 187.347656 162.242188 C 188.71875 162.242188 189.835938 161.125 189.835938 159.746094 L 189.835938 148.277344 C 189.835938 146.898438 188.71875 145.78125 187.347656 145.78125 " fill-opacity="1" fill-rule="nonzero"/><path fill="#2a3634" d="M 163.863281 135.03125 L 168.660156 107.769531 C 168.972656 105.984375 167.785156 104.28125 166 103.964844 C 164.21875 103.648438 162.519531 104.84375 162.203125 106.628906 L 157.40625 133.890625 C 157.089844 135.679688 158.28125 137.378906 160.066406 137.695312 C 160.257812 137.730469 160.449219 137.746094 160.636719 137.746094 C 162.199219 137.746094 163.582031 136.625 163.863281 135.03125 " fill-opacity="1" fill-rule="nonzero"/><path fill="#2a3634" d="M 155.417969 145.1875 L 153.429688 156.488281 C 153.117188 158.273438 154.304688 159.976562 156.089844 160.292969 C 156.28125 160.328125 156.472656 160.34375 156.660156 160.34375 C 158.222656 160.34375 159.605469 159.222656 159.886719 157.628906 L 161.875 146.328125 C 162.1875 144.542969 161 142.839844 159.214844 142.523438 C 157.433594 142.210938 155.730469 143.402344 155.417969 145.1875 " fill-opacity="1" fill-rule="nonzero"/><path fill="#2a3634" d="M 133.613281 130.59375 C 133.984375 130.730469 134.363281 130.792969 134.734375 130.792969 C 136.074219 130.792969 137.328125 129.964844 137.8125 128.632812 L 147.265625 102.617188 C 147.882812 100.914062 147.007812 99.027344 145.304688 98.410156 C 143.601562 97.789062 141.722656 98.667969 141.101562 100.371094 L 131.652344 126.382812 C 131.035156 128.089844 131.910156 129.972656 133.613281 130.59375 " fill-opacity="1" fill-rule="nonzero"/><path fill="#2a3634" d="M 125.78125 152.15625 C 126.152344 152.289062 126.527344 152.355469 126.902344 152.355469 C 128.242188 152.355469 129.496094 151.527344 129.984375 150.191406 L 133.898438 139.410156 C 134.519531 137.707031 133.640625 135.824219 131.9375 135.203125 C 130.238281 134.582031 128.359375 135.460938 127.738281 137.164062 L 123.820312 147.945312 C 123.203125 149.648438 124.078125 151.535156 125.78125 152.15625 " fill-opacity="1" fill-rule="nonzero"/><path fill="#2a3634" d="M 214.628906 137.695312 C 216.410156 137.378906 217.601562 135.679688 217.285156 133.890625 L 212.488281 106.628906 C 212.171875 104.84375 210.472656 103.652344 208.691406 103.964844 C 206.910156 104.28125 205.71875 105.984375 206.03125 107.769531 L 210.828125 135.03125 C 211.109375 136.625 212.492188 137.746094 214.054688 137.746094 C 214.242188 137.746094 214.433594 137.730469 214.628906 137.695312 " fill-opacity="1" fill-rule="nonzero"/><path fill="#2a3634" d="M 214.804688 157.628906 C 215.085938 159.222656 216.46875 160.34375 218.03125 160.34375 C 218.21875 160.34375 218.410156 160.328125 218.601562 160.292969 C 220.386719 159.976562 221.574219 158.273438 221.261719 156.488281 L 219.273438 145.1875 C 218.957031 143.402344 217.257812 142.210938 215.476562 142.523438 C 213.695312 142.839844 212.503906 144.542969 212.816406 146.328125 L 214.804688 157.628906 " fill-opacity="1" fill-rule="nonzero"/><path fill="#2a3634" d="M 229.386719 98.410156 C 227.683594 99.027344 226.808594 100.914062 227.429688 102.617188 L 236.878906 128.632812 C 237.363281 129.964844 238.621094 130.792969 239.957031 130.792969 C 240.328125 130.792969 240.707031 130.730469 241.078125 130.59375 C 242.78125 129.972656 243.65625 128.089844 243.039062 126.382812 L 233.589844 100.371094 C 232.96875 98.667969 231.085938 97.789062 229.386719 98.410156 " fill-opacity="1" fill-rule="nonzero"/><path fill="#2a3634" d="M 240.792969 139.410156 L 244.710938 150.191406 C 245.191406 151.527344 246.449219 152.355469 247.789062 152.355469 C 248.160156 152.355469 248.539062 152.289062 248.910156 152.15625 C 250.613281 151.535156 251.488281 149.648438 250.871094 147.945312 L 246.953125 137.164062 C 246.335938 135.460938 244.453125 134.582031 242.753906 135.203125 C 241.050781 135.824219 240.171875 137.707031 240.792969 139.410156 " fill-opacity="1" fill-rule="nonzero"/></svg>