<svg xmlns="http://www.w3.org/2000/svg" xmlns:xlink="http://www.w3.org/1999/xlink" width="500" zoomAndPan="magnify" viewBox="0 0 375 374.999991" height="500" preserveAspectRatio="xMidYMid meet" version="1.0"><defs><clipPath id="0c1933b6fa"><path d="M 293 34.28125 L 336 34.28125 L 336 98 L 293 98 Z M 293 34.28125 " clip-rule="nonzero"/></clipPath><clipPath id="8e8cc506b9"><path d="M 288 129 L 341.03125 129 L 341.03125 161 L 288 161 Z M 288 129 " clip-rule="nonzero"/></clipPath><clipPath id="48163a9ee0"><path d="M 154 309 L 324 309 L 324 341.03125 L 154 341.03125 Z M 154 309 " clip-rule="nonzero"/></clipPath><clipPath id="af0b190e44"><path d="M 34.28125 277 L 119 277 L 119 341.03125 L 34.28125 341.03125 Z M 34.28125 277 " clip-rule="nonzero"/></clipPath><clipPath id="8f44aa0650"><path d="M 50 319 L 72 319 L 72 341.03125 L 50 341.03125 Z M 50 319 " clip-rule="nonzero"/></clipPath></defs><rect x="-37.5" width="450" fill="#ffffff" y="-37.499999" height="449.999989" fill-opacity="1"/><rect x="-37.5" width="450" fill="#ffffff" y="-37.499999" height="449.999989" fill-opacity="1"/><g clip-path="url(#0c1933b6fa)"><path fill="#2a3634" d="M 304.011719 34.28125 L 325.167969 34.28125 C 325.859375 34.28125 326.546875 34.351562 327.230469 34.484375 C 327.910156 34.621094 328.574219 34.820312 329.214844 35.085938 C 329.855469 35.351562 330.464844 35.679688 331.042969 36.066406 C 331.621094 36.449219 332.15625 36.890625 332.644531 37.378906 C 333.136719 37.871094 333.574219 38.40625 333.960938 38.984375 C 334.347656 39.5625 334.671875 40.171875 334.9375 40.8125 C 335.203125 41.453125 335.40625 42.117188 335.539062 42.796875 C 335.675781 43.476562 335.742188 44.164062 335.742188 44.859375 L 335.742188 87.171875 C 335.742188 87.863281 335.675781 88.554688 335.539062 89.234375 C 335.40625 89.914062 335.203125 90.578125 334.9375 91.21875 C 334.671875 91.859375 334.347656 92.46875 333.960938 93.046875 C 333.574219 93.625 333.136719 94.160156 332.644531 94.648438 C 332.15625 95.140625 331.621094 95.578125 331.042969 95.964844 C 330.464844 96.351562 329.855469 96.675781 329.214844 96.941406 C 328.574219 97.207031 327.910156 97.410156 327.230469 97.542969 C 326.546875 97.679688 325.859375 97.75 325.167969 97.75 L 304.011719 97.75 C 303.316406 97.75 302.628906 97.679688 301.949219 97.542969 C 301.265625 97.410156 300.605469 97.207031 299.964844 96.941406 C 299.320312 96.675781 298.710938 96.351562 298.132812 95.964844 C 297.558594 95.578125 297.023438 95.140625 296.53125 94.648438 C 296.039062 94.160156 295.601562 93.625 295.214844 93.046875 C 294.832031 92.46875 294.503906 91.859375 294.238281 91.21875 C 293.972656 90.578125 293.773438 89.914062 293.636719 89.234375 C 293.5 88.554688 293.433594 87.863281 293.433594 87.171875 L 293.433594 44.859375 C 293.433594 44.164062 293.5 43.476562 293.636719 42.796875 C 293.773438 42.117188 293.972656 41.453125 294.238281 40.8125 C 294.503906 40.171875 294.832031 39.5625 295.214844 38.984375 C 295.601562 38.40625 296.039062 37.871094 296.53125 37.378906 C 297.023438 36.890625 297.558594 36.449219 298.132812 36.066406 C 298.710938 35.679688 299.320312 35.351562 299.964844 35.085938 C 300.605469 34.820312 301.265625 34.621094 301.949219 34.484375 C 302.628906 34.351562 303.316406 34.28125 304.011719 34.28125 Z M 304.011719 34.28125 " fill-opacity="1" fill-rule="nonzero"/></g><path fill="#2a3634" d="M 309.300781 108.324219 L 319.878906 108.324219 L 319.878906 118.902344 L 309.300781 118.902344 Z M 309.300781 108.324219 " fill-opacity="1" fill-rule="nonzero"/><g clip-path="url(#8e8cc506b9)"><path fill="#2a3634" d="M 341.03125 150.636719 L 341.03125 145.347656 C 341.03125 144.828125 341.007812 144.308594 340.957031 143.792969 C 340.90625 143.273438 340.828125 142.761719 340.726562 142.25 C 340.625 141.742188 340.5 141.238281 340.347656 140.742188 C 340.199219 140.246094 340.023438 139.753906 339.824219 139.277344 C 339.625 138.796875 339.402344 138.324219 339.160156 137.867188 C 338.914062 137.410156 338.648438 136.964844 338.359375 136.53125 C 338.070312 136.101562 337.761719 135.683594 337.429688 135.28125 C 337.101562 134.878906 336.753906 134.496094 336.386719 134.128906 C 336.019531 133.761719 335.632812 133.410156 335.230469 133.082031 C 334.828125 132.753906 334.414062 132.445312 333.980469 132.15625 C 333.550781 131.867188 333.105469 131.597656 332.644531 131.355469 C 332.1875 131.109375 331.71875 130.886719 331.238281 130.6875 C 330.757812 130.488281 330.269531 130.316406 329.773438 130.164062 C 329.273438 130.011719 328.769531 129.886719 328.261719 129.785156 C 327.75 129.683594 327.238281 129.609375 326.722656 129.558594 C 326.203125 129.507812 325.6875 129.480469 325.167969 129.480469 L 304.011719 129.480469 C 303.492188 129.480469 302.972656 129.507812 302.457031 129.558594 C 301.9375 129.609375 301.425781 129.683594 300.914062 129.785156 C 300.40625 129.886719 299.902344 130.011719 299.40625 130.164062 C 298.90625 130.316406 298.417969 130.488281 297.9375 130.6875 C 297.460938 130.886719 296.988281 131.109375 296.53125 131.355469 C 296.074219 131.597656 295.628906 131.867188 295.195312 132.15625 C 294.765625 132.445312 294.347656 132.753906 293.945312 133.082031 C 293.542969 133.410156 293.160156 133.761719 292.792969 134.128906 C 292.425781 134.496094 292.074219 134.878906 291.746094 135.28125 C 291.417969 135.683594 291.105469 136.101562 290.820312 136.53125 C 290.53125 136.964844 290.261719 137.410156 290.019531 137.867188 C 289.773438 138.324219 289.550781 138.796875 289.351562 139.277344 C 289.152344 139.753906 288.980469 140.246094 288.828125 140.742188 C 288.675781 141.238281 288.550781 141.742188 288.449219 142.25 C 288.347656 142.761719 288.273438 143.273438 288.222656 143.792969 C 288.171875 144.308594 288.144531 144.828125 288.144531 145.347656 L 288.144531 160.625 C 293.027344 157.355469 298.28125 154.867188 303.90625 153.164062 C 309.53125 151.460938 315.28125 150.621094 321.15625 150.636719 Z M 341.03125 150.636719 " fill-opacity="1" fill-rule="nonzero"/></g><g clip-path="url(#48163a9ee0)"><path fill="#2a3634" d="M 210.363281 328.90625 L 190.757812 309.300781 L 154.449219 309.300781 L 161.214844 329.59375 C 161.488281 330.421875 161.828125 331.222656 162.226562 331.996094 C 162.628906 332.773438 163.085938 333.511719 163.601562 334.214844 C 164.117188 334.917969 164.6875 335.578125 165.308594 336.191406 C 165.925781 336.804688 166.589844 337.367188 167.296875 337.878906 C 168.003906 338.386719 168.75 338.839844 169.527344 339.234375 C 170.304688 339.628906 171.109375 339.957031 171.941406 340.226562 C 172.769531 340.492188 173.617188 340.695312 174.476562 340.832031 C 175.339844 340.964844 176.207031 341.03125 177.078125 341.03125 L 304.011719 341.03125 C 305.9375 341.019531 307.832031 340.773438 309.695312 340.292969 C 311.5625 339.8125 313.339844 339.109375 315.027344 338.183594 C 316.71875 337.261719 318.269531 336.148438 319.683594 334.839844 C 321.097656 333.53125 322.328125 332.070312 323.378906 330.453125 L 214.101562 330.453125 C 213.398438 330.453125 212.726562 330.320312 212.078125 330.050781 C 211.429688 329.785156 210.859375 329.402344 210.363281 328.90625 Z M 210.363281 328.90625 " fill-opacity="1" fill-rule="nonzero"/></g><path fill="#2a3634" d="M 286.757812 175.382812 L 279.042969 185.011719 C 277.109375 187.4375 275.390625 190.003906 273.886719 192.71875 C 272.386719 195.433594 271.121094 198.25 270.097656 201.179688 C 269.070312 204.105469 268.296875 207.097656 267.773438 210.152344 C 267.253906 213.210938 266.992188 216.289062 266.988281 219.390625 L 266.988281 282.855469 L 298.722656 282.855469 C 300.203125 282.855469 301.675781 282.945312 303.144531 283.125 C 304.613281 283.300781 306.0625 283.566406 307.5 283.917969 C 308.9375 284.269531 310.347656 284.707031 311.730469 285.230469 C 313.117188 285.75 314.464844 286.351562 315.777344 287.035156 C 317.089844 287.71875 318.355469 288.476562 319.574219 289.3125 C 320.796875 290.148438 321.960938 291.054688 323.074219 292.027344 C 324.1875 293.003906 325.238281 294.042969 326.222656 295.144531 C 327.210938 296.242188 328.128906 297.398438 328.980469 298.609375 L 340.566406 161.214844 L 321.15625 161.214844 C 317.964844 161.207031 314.804688 161.511719 311.671875 162.125 C 308.539062 162.742188 305.5 163.65625 302.546875 164.871094 C 299.597656 166.089844 296.792969 167.582031 294.136719 169.347656 C 291.476562 171.117188 289.019531 173.128906 286.757812 175.382812 Z M 286.757812 175.382812 " fill-opacity="1" fill-rule="nonzero"/><path fill="#2a3634" d="M 298.722656 293.433594 L 229.96875 293.433594 C 229.621094 293.433594 229.28125 293.402344 228.941406 293.332031 L 167.265625 281.089844 C 166.5625 280.980469 165.859375 280.925781 165.148438 280.925781 C 164.195312 280.929688 163.25 281.027344 162.316406 281.21875 C 161.378906 281.410156 160.472656 281.691406 159.59375 282.058594 C 158.714844 282.425781 157.878906 282.878906 157.085938 283.410156 C 156.292969 283.941406 155.5625 284.546875 154.890625 285.222656 C 154.214844 285.898438 153.613281 286.632812 153.085938 287.429688 C 152.558594 288.222656 152.109375 289.058594 151.746094 289.941406 C 151.378906 290.824219 151.105469 291.730469 150.917969 292.667969 C 150.730469 293.601562 150.636719 294.546875 150.636719 295.5 C 150.648438 296.589844 150.785156 297.664062 151.042969 298.722656 L 192.945312 298.722656 C 193.648438 298.722656 194.320312 298.855469 194.96875 299.125 C 195.617188 299.394531 196.191406 299.777344 196.683594 300.273438 L 216.292969 319.878906 L 325.167969 319.878906 C 325.164062 319.011719 325.121094 318.148438 325.035156 317.285156 C 324.949219 316.425781 324.824219 315.570312 324.652344 314.71875 C 324.484375 313.871094 324.273438 313.03125 324.019531 312.203125 C 323.769531 311.375 323.476562 310.5625 323.144531 309.761719 C 322.8125 308.964844 322.441406 308.179688 322.035156 307.417969 C 321.625 306.65625 321.179688 305.914062 320.699219 305.195312 C 320.21875 304.472656 319.703125 303.777344 319.152344 303.109375 C 318.605469 302.441406 318.023438 301.800781 317.410156 301.1875 C 316.800781 300.574219 316.160156 299.996094 315.488281 299.445312 C 314.820312 298.894531 314.125 298.382812 313.40625 297.898438 C 312.6875 297.417969 311.945312 296.972656 311.179688 296.566406 C 310.417969 296.15625 309.636719 295.785156 308.835938 295.453125 C 308.039062 295.121094 307.222656 294.832031 306.394531 294.578125 C 305.566406 294.328125 304.726562 294.117188 303.878906 293.945312 C 303.03125 293.777344 302.175781 293.648438 301.3125 293.5625 C 300.453125 293.476562 299.589844 293.433594 298.722656 293.433594 Z M 298.722656 293.433594 " fill-opacity="1" fill-rule="nonzero"/><path fill="#2a3634" d="M 194.894531 232.203125 L 192.945312 226.371094 L 191 232.1875 C 190.757812 232.914062 190.460938 233.621094 190.109375 234.300781 C 189.757812 234.980469 189.359375 235.628906 188.90625 236.246094 C 188.453125 236.863281 187.953125 237.441406 187.410156 237.980469 C 186.867188 238.519531 186.285156 239.015625 185.664062 239.460938 C 185.042969 239.910156 184.390625 240.308594 183.707031 240.652344 C 183.023438 241 182.320312 241.289062 181.589844 241.527344 C 180.863281 241.761719 180.121094 241.9375 179.363281 242.058594 C 178.605469 242.179688 177.84375 242.238281 177.078125 242.238281 C 177.84375 242.238281 178.605469 242.296875 179.363281 242.417969 C 180.121094 242.535156 180.863281 242.714844 181.589844 242.949219 C 182.320312 243.183594 183.023438 243.476562 183.707031 243.820312 C 184.390625 244.167969 185.042969 244.566406 185.664062 245.011719 C 186.285156 245.460938 186.867188 245.957031 187.410156 246.496094 C 187.953125 247.035156 188.453125 247.613281 188.90625 248.230469 C 189.359375 248.847656 189.757812 249.496094 190.109375 250.175781 C 190.460938 250.855469 190.757812 251.558594 191 252.285156 L 192.945312 258.105469 L 194.894531 252.285156 C 195.132812 251.558594 195.429688 250.855469 195.78125 250.175781 C 196.132812 249.496094 196.535156 248.847656 196.988281 248.230469 C 197.441406 247.613281 197.9375 247.035156 198.484375 246.496094 C 199.027344 245.957031 199.609375 245.460938 200.230469 245.011719 C 200.851562 244.566406 201.503906 244.167969 202.183594 243.820312 C 202.867188 243.476562 203.574219 243.183594 204.300781 242.949219 C 205.03125 242.714844 205.773438 242.535156 206.53125 242.417969 C 207.285156 242.296875 208.046875 242.238281 208.8125 242.238281 C 208.046875 242.238281 207.285156 242.179688 206.53125 242.058594 C 205.773438 241.941406 205.03125 241.765625 204.304688 241.527344 C 203.578125 241.292969 202.871094 241.003906 202.1875 240.65625 C 201.503906 240.3125 200.855469 239.917969 200.234375 239.46875 C 199.613281 239.019531 199.03125 238.527344 198.488281 237.988281 C 197.941406 237.453125 197.445312 236.875 196.992188 236.257812 C 196.539062 235.640625 196.136719 234.992188 195.785156 234.3125 C 195.429688 233.632812 195.132812 232.929688 194.894531 232.203125 Z M 194.894531 232.203125 " fill-opacity="1" fill-rule="nonzero"/><path fill="#2a3634" d="M 106.886719 97.28125 L 108.324219 103.035156 L 109.765625 97.28125 C 110.035156 96.191406 110.398438 95.128906 110.847656 94.097656 C 111.296875 93.066406 111.828125 92.078125 112.441406 91.132812 C 113.054688 90.1875 113.742188 89.300781 114.5 88.472656 C 115.261719 87.644531 116.085938 86.882812 116.972656 86.1875 C 117.859375 85.496094 118.796875 84.882812 119.785156 84.34375 C 120.773438 83.808594 121.800781 83.355469 122.867188 82.988281 C 123.929688 82.621094 125.015625 82.347656 126.128906 82.160156 C 127.238281 81.976562 128.355469 81.882812 129.480469 81.882812 C 128.355469 81.882812 127.238281 81.789062 126.125 81.601562 C 125.015625 81.417969 123.929688 81.140625 122.863281 80.777344 C 121.800781 80.410156 120.773438 79.957031 119.785156 79.421875 C 118.792969 78.882812 117.855469 78.269531 116.96875 77.574219 C 116.082031 76.882812 115.257812 76.121094 114.496094 75.292969 C 113.734375 74.460938 113.050781 73.574219 112.4375 72.632812 C 111.824219 71.6875 111.289062 70.699219 110.84375 69.667969 C 110.394531 68.636719 110.03125 67.574219 109.757812 66.480469 L 108.324219 60.726562 L 106.886719 66.480469 C 106.613281 67.574219 106.253906 68.632812 105.804688 69.667969 C 105.355469 70.699219 104.824219 71.6875 104.210938 72.628906 C 103.597656 73.574219 102.910156 74.460938 102.152344 75.289062 C 101.390625 76.121094 100.566406 76.882812 99.679688 77.574219 C 98.792969 78.265625 97.855469 78.882812 96.863281 79.417969 C 95.875 79.957031 94.847656 80.40625 93.785156 80.773438 C 92.722656 81.140625 91.632812 81.417969 90.523438 81.601562 C 89.414062 81.789062 88.296875 81.882812 87.171875 81.882812 C 88.296875 81.882812 89.414062 81.976562 90.523438 82.160156 C 91.632812 82.347656 92.722656 82.621094 93.785156 82.988281 C 94.847656 83.355469 95.875 83.808594 96.863281 84.34375 C 97.855469 84.882812 98.792969 85.496094 99.679688 86.1875 C 100.566406 86.882812 101.390625 87.644531 102.152344 88.472656 C 102.910156 89.300781 103.597656 90.1875 104.210938 91.132812 C 104.824219 92.078125 105.355469 93.066406 105.804688 94.097656 C 106.253906 95.128906 106.613281 96.191406 106.886719 97.28125 Z M 106.886719 97.28125 " fill-opacity="1" fill-rule="nonzero"/><path fill="#2a3634" d="M 183.957031 106.738281 L 188.550781 112.71875 L 200.878906 100.390625 L 214.101562 113.613281 L 245.835938 81.882812 L 232.613281 68.660156 L 235.257812 66.015625 L 214.101562 44.859375 L 195.589844 63.371094 L 182.367188 50.148438 L 147.992188 84.527344 C 148.425781 84.960938 148.835938 85.414062 149.222656 85.886719 C 149.613281 86.359375 149.976562 86.851562 150.316406 87.359375 C 150.65625 87.867188 150.972656 88.394531 151.261719 88.933594 C 151.550781 89.472656 151.8125 90.027344 152.046875 90.59375 C 152.28125 91.15625 152.488281 91.734375 152.664062 92.320312 C 152.84375 92.90625 152.992188 93.5 153.109375 94.101562 C 153.230469 94.699219 153.320312 95.304688 153.378906 95.914062 C 153.441406 96.523438 153.46875 97.136719 153.46875 97.75 C 153.46875 98.359375 153.441406 98.972656 153.378906 99.582031 C 153.320312 100.191406 153.230469 100.796875 153.109375 101.394531 C 152.992188 101.996094 152.84375 102.589844 152.664062 103.175781 C 152.488281 103.761719 152.28125 104.339844 152.046875 104.902344 C 151.8125 105.46875 151.550781 106.023438 151.261719 106.5625 C 150.972656 107.101562 150.65625 107.628906 150.316406 108.136719 C 149.976562 108.644531 149.613281 109.136719 149.222656 109.609375 C 148.835938 110.082031 148.425781 110.535156 147.992188 110.96875 L 108.324219 150.636719 L 113.117188 155.425781 L 112.589844 156.074219 C 110.183594 159.363281 108.054688 162.824219 106.199219 166.449219 C 104.34375 170.078125 102.785156 173.832031 101.523438 177.707031 C 100.265625 181.582031 99.316406 185.53125 98.683594 189.558594 C 98.050781 193.585938 97.738281 197.632812 97.75 201.710938 L 97.75 219.390625 C 97.75 219.738281 97.714844 220.082031 97.644531 220.421875 C 97.578125 220.761719 97.476562 221.09375 97.34375 221.414062 C 97.210938 221.734375 97.050781 222.039062 96.855469 222.328125 C 96.664062 222.617188 96.445312 222.882812 96.199219 223.128906 C 95.953125 223.375 95.6875 223.59375 95.398438 223.789062 C 95.109375 223.980469 94.804688 224.144531 94.484375 224.277344 C 94.164062 224.410156 93.832031 224.507812 93.492188 224.578125 C 93.152344 224.644531 92.804688 224.679688 92.460938 224.679688 C 92.113281 224.679688 91.769531 224.644531 91.425781 224.578125 C 91.085938 224.507812 90.757812 224.410156 90.433594 224.277344 C 90.113281 224.144531 89.808594 223.980469 89.519531 223.789062 C 89.230469 223.59375 88.964844 223.375 88.71875 223.128906 C 88.472656 222.882812 88.253906 222.617188 88.0625 222.328125 C 87.867188 222.039062 87.707031 221.734375 87.574219 221.414062 C 87.441406 221.09375 87.339844 220.761719 87.273438 220.421875 C 87.203125 220.082031 87.171875 219.738281 87.171875 219.390625 L 87.171875 150.636719 C 87.171875 150.117188 87.144531 149.597656 87.09375 149.082031 C 87.042969 148.5625 86.96875 148.050781 86.867188 147.539062 C 86.765625 147.03125 86.636719 146.527344 86.488281 146.03125 C 86.335938 145.53125 86.160156 145.042969 85.960938 144.5625 C 85.765625 144.085938 85.542969 143.613281 85.296875 143.15625 C 85.050781 142.699219 84.785156 142.253906 84.496094 141.820312 C 84.207031 141.390625 83.898438 140.972656 83.570312 140.570312 C 83.238281 140.167969 82.890625 139.785156 82.523438 139.417969 C 82.15625 139.050781 81.769531 138.699219 81.371094 138.371094 C 80.96875 138.042969 80.550781 137.730469 80.117188 137.445312 C 79.6875 137.15625 79.242188 136.886719 78.785156 136.644531 C 78.324219 136.398438 77.855469 136.175781 77.375 135.976562 C 76.894531 135.777344 76.40625 135.605469 75.910156 135.453125 C 75.414062 135.300781 74.910156 135.175781 74.398438 135.074219 C 73.890625 134.972656 73.375 134.898438 72.859375 134.847656 C 72.34375 134.796875 71.824219 134.769531 71.304688 134.769531 C 70.785156 134.769531 70.265625 134.796875 69.75 134.847656 C 69.230469 134.898438 68.71875 134.972656 68.207031 135.074219 C 67.699219 135.175781 67.195312 135.300781 66.699219 135.453125 C 66.199219 135.605469 65.710938 135.777344 65.230469 135.976562 C 64.753906 136.175781 64.28125 136.398438 63.824219 136.644531 C 63.367188 136.886719 62.921875 137.15625 62.488281 137.445312 C 62.058594 137.730469 61.640625 138.042969 61.238281 138.371094 C 60.835938 138.699219 60.453125 139.050781 60.085938 139.417969 C 59.71875 139.785156 59.367188 140.167969 59.039062 140.570312 C 58.710938 140.972656 58.398438 141.390625 58.113281 141.820312 C 57.824219 142.253906 57.554688 142.699219 57.3125 143.15625 C 57.066406 143.613281 56.84375 144.085938 56.644531 144.5625 C 56.445312 145.042969 56.273438 145.53125 56.121094 146.03125 C 55.96875 146.527344 55.84375 147.03125 55.742188 147.539062 C 55.640625 148.050781 55.566406 148.5625 55.515625 149.082031 C 55.464844 149.597656 55.4375 150.117188 55.4375 150.636719 L 55.4375 256.410156 L 50.148438 256.410156 L 50.148438 266.988281 L 71.304688 266.988281 L 71.304688 256.410156 L 66.015625 256.410156 L 66.015625 150.636719 C 66.015625 150.289062 66.050781 149.945312 66.117188 149.605469 C 66.183594 149.261719 66.285156 148.933594 66.417969 148.613281 C 66.550781 148.292969 66.714844 147.988281 66.90625 147.699219 C 67.097656 147.410156 67.320312 147.140625 67.5625 146.894531 C 67.808594 146.652344 68.078125 146.429688 68.367188 146.238281 C 68.65625 146.046875 68.960938 145.882812 69.28125 145.75 C 69.601562 145.617188 69.933594 145.515625 70.273438 145.449219 C 70.613281 145.382812 70.957031 145.347656 71.304688 145.347656 C 71.652344 145.347656 71.996094 145.382812 72.335938 145.449219 C 72.675781 145.515625 73.007812 145.617188 73.328125 145.75 C 73.648438 145.882812 73.953125 146.046875 74.242188 146.238281 C 74.53125 146.429688 74.796875 146.652344 75.042969 146.894531 C 75.289062 147.140625 75.507812 147.410156 75.703125 147.699219 C 75.894531 147.988281 76.058594 148.292969 76.191406 148.613281 C 76.324219 148.933594 76.421875 149.261719 76.492188 149.605469 C 76.558594 149.945312 76.59375 150.289062 76.59375 150.636719 L 76.59375 219.390625 C 76.59375 219.910156 76.617188 220.429688 76.667969 220.945312 C 76.71875 221.460938 76.796875 221.976562 76.898438 222.484375 C 77 222.996094 77.125 223.5 77.277344 223.996094 C 77.425781 224.492188 77.601562 224.980469 77.800781 225.460938 C 78 225.941406 78.222656 226.410156 78.464844 226.871094 C 78.710938 227.328125 78.976562 227.773438 79.265625 228.207031 C 79.554688 228.636719 79.863281 229.054688 80.195312 229.457031 C 80.523438 229.859375 80.871094 230.242188 81.238281 230.609375 C 81.609375 230.976562 81.992188 231.324219 82.394531 231.65625 C 82.796875 231.984375 83.210938 232.292969 83.644531 232.582031 C 84.078125 232.871094 84.523438 233.136719 84.980469 233.382812 C 85.4375 233.628906 85.90625 233.851562 86.386719 234.050781 C 86.867188 234.246094 87.355469 234.421875 87.851562 234.574219 C 88.351562 234.722656 88.855469 234.851562 89.363281 234.953125 C 89.875 235.054688 90.386719 235.128906 90.902344 235.179688 C 91.421875 235.230469 91.941406 235.257812 92.460938 235.257812 C 92.980469 235.257812 93.496094 235.230469 94.015625 235.179688 C 94.53125 235.128906 95.046875 235.054688 95.554688 234.953125 C 96.0625 234.851562 96.566406 234.722656 97.066406 234.574219 C 97.5625 234.421875 98.050781 234.246094 98.53125 234.050781 C 99.011719 233.851562 99.480469 233.628906 99.9375 233.382812 C 100.398438 233.136719 100.84375 232.871094 101.273438 232.582031 C 101.707031 232.292969 102.125 231.984375 102.523438 231.65625 C 102.925781 231.324219 103.3125 230.976562 103.679688 230.609375 C 104.046875 230.242188 104.394531 229.859375 104.722656 229.457031 C 105.054688 229.054688 105.363281 228.636719 105.652344 228.207031 C 105.941406 227.773438 106.207031 227.328125 106.453125 226.871094 C 106.695312 226.410156 106.917969 225.941406 107.117188 225.460938 C 107.316406 224.980469 107.492188 224.492188 107.640625 223.996094 C 107.792969 223.5 107.917969 222.996094 108.019531 222.484375 C 108.121094 221.976562 108.199219 221.460938 108.25 220.945312 C 108.300781 220.429688 108.324219 219.910156 108.324219 219.390625 L 108.324219 201.710938 C 108.316406 198.261719 108.578125 194.832031 109.101562 191.421875 C 109.628906 188.011719 110.417969 184.664062 111.464844 181.378906 C 112.511719 178.09375 113.808594 174.90625 115.351562 171.824219 C 116.898438 168.738281 118.671875 165.792969 120.675781 162.984375 L 124.191406 166.503906 Z M 183.957031 106.738281 " fill-opacity="1" fill-rule="nonzero"/><path fill="#2a3634" d="M 112.703125 314.589844 L 118.523438 314.589844 C 118.375 313.433594 118.179688 312.289062 117.941406 311.152344 C 117.699219 310.015625 117.410156 308.890625 117.078125 307.777344 C 116.742188 306.664062 116.363281 305.566406 115.941406 304.484375 C 115.515625 303.398438 115.046875 302.335938 114.535156 301.292969 C 114.023438 300.25 113.46875 299.230469 112.875 298.230469 C 112.277344 297.230469 111.640625 296.261719 110.964844 295.3125 C 110.289062 294.367188 109.574219 293.453125 108.824219 292.566406 C 108.074219 291.679688 107.285156 290.824219 106.464844 290 C 105.640625 289.179688 104.789062 288.390625 103.902344 287.640625 C 103.015625 286.886719 102.097656 286.175781 101.152344 285.496094 C 100.207031 284.820312 99.234375 284.183594 98.238281 283.589844 C 97.238281 282.992188 96.21875 282.4375 95.175781 281.925781 C 94.132812 281.414062 93.070312 280.945312 91.988281 280.519531 C 90.90625 280.09375 89.804688 279.714844 88.691406 279.378906 C 87.578125 279.046875 86.453125 278.757812 85.316406 278.515625 C 84.179688 278.273438 83.035156 278.078125 81.882812 277.933594 L 81.882812 283.75 C 81.882812 284.757812 81.929688 285.765625 82.027344 286.773438 C 82.128906 287.777344 82.273438 288.773438 82.472656 289.765625 C 82.667969 290.753906 82.914062 291.734375 83.207031 292.699219 C 83.496094 293.667969 83.835938 294.617188 84.222656 295.550781 C 84.609375 296.484375 85.039062 297.394531 85.515625 298.285156 C 85.992188 299.175781 86.511719 300.042969 87.070312 300.882812 C 87.632812 301.722656 88.230469 302.53125 88.871094 303.3125 C 89.511719 304.09375 90.191406 304.839844 90.902344 305.554688 C 91.617188 306.269531 92.363281 306.945312 93.144531 307.585938 C 93.925781 308.226562 94.734375 308.828125 95.574219 309.390625 C 96.414062 309.953125 97.28125 310.46875 98.171875 310.945312 C 99.0625 311.421875 99.972656 311.855469 100.90625 312.242188 C 101.839844 312.628906 102.789062 312.96875 103.753906 313.261719 C 104.722656 313.554688 105.699219 313.800781 106.691406 313.996094 C 107.679688 314.191406 108.675781 314.339844 109.683594 314.441406 C 110.6875 314.539062 111.695312 314.589844 112.703125 314.589844 Z M 112.703125 314.589844 " fill-opacity="1" fill-rule="nonzero"/><g clip-path="url(#af0b190e44)"><path fill="#2a3634" d="M 83.429688 313.039062 C 81.503906 311.121094 79.78125 309.03125 78.265625 306.773438 C 76.753906 304.511719 75.476562 302.128906 74.433594 299.613281 C 73.394531 297.101562 72.609375 294.511719 72.082031 291.84375 C 71.554688 289.175781 71.296875 286.480469 71.304688 283.761719 L 71.304688 277.566406 L 44.859375 277.566406 C 44.164062 277.566406 43.476562 277.636719 42.796875 277.769531 C 42.117188 277.90625 41.453125 278.105469 40.8125 278.371094 C 40.171875 278.636719 39.5625 278.964844 38.984375 279.351562 C 38.40625 279.734375 37.871094 280.175781 37.378906 280.664062 C 36.890625 281.15625 36.449219 281.691406 36.066406 282.269531 C 35.679688 282.84375 35.351562 283.453125 35.085938 284.097656 C 34.820312 284.738281 34.621094 285.398438 34.484375 286.082031 C 34.351562 286.761719 34.28125 287.449219 34.28125 288.144531 L 34.28125 341.03125 L 42.511719 341.03125 C 40.574219 337.773438 39.59375 334.246094 39.570312 330.453125 C 39.570312 329.761719 39.605469 329.070312 39.671875 328.382812 C 39.742188 327.691406 39.84375 327.007812 39.976562 326.328125 C 40.113281 325.648438 40.28125 324.976562 40.480469 324.3125 C 40.683594 323.652344 40.917969 323 41.183594 322.359375 C 41.445312 321.71875 41.742188 321.09375 42.070312 320.484375 C 42.394531 319.871094 42.75 319.277344 43.136719 318.703125 C 43.523438 318.125 43.933594 317.570312 44.375 317.035156 C 44.8125 316.5 45.277344 315.984375 45.765625 315.496094 C 46.257812 315.007812 46.769531 314.542969 47.304688 314.101562 C 47.839844 313.664062 48.398438 313.25 48.972656 312.863281 C 49.550781 312.480469 50.144531 312.125 50.753906 311.796875 C 51.363281 311.472656 51.992188 311.175781 52.628906 310.910156 C 53.269531 310.644531 53.921875 310.410156 54.585938 310.210938 C 55.25 310.007812 55.917969 309.839844 56.597656 309.707031 C 57.277344 309.570312 57.964844 309.46875 58.652344 309.402344 C 59.34375 309.332031 60.035156 309.300781 60.726562 309.300781 C 61.417969 309.300781 62.109375 309.332031 62.800781 309.402344 C 63.488281 309.46875 64.175781 309.570312 64.855469 309.707031 C 65.535156 309.839844 66.203125 310.007812 66.867188 310.210938 C 67.53125 310.410156 68.183594 310.644531 68.820312 310.910156 C 69.460938 311.175781 70.089844 311.472656 70.699219 311.796875 C 71.308594 312.125 71.902344 312.480469 72.480469 312.863281 C 73.054688 313.25 73.613281 313.664062 74.148438 314.101562 C 74.683594 314.542969 75.195312 315.007812 75.683594 315.496094 C 76.175781 315.984375 76.640625 316.5 77.078125 317.035156 C 77.519531 317.570312 77.929688 318.125 78.316406 318.703125 C 78.703125 319.277344 79.058594 319.871094 79.382812 320.484375 C 79.710938 321.09375 80.007812 321.71875 80.269531 322.359375 C 80.535156 323 80.769531 323.652344 80.972656 324.3125 C 81.171875 324.976562 81.339844 325.648438 81.476562 326.328125 C 81.609375 327.007812 81.710938 327.691406 81.78125 328.382812 C 81.847656 329.070312 81.882812 329.761719 81.882812 330.453125 C 81.859375 334.246094 80.878906 337.773438 78.941406 341.03125 L 113.613281 341.03125 C 113.960938 341.03125 114.304688 341 114.644531 340.929688 C 114.988281 340.863281 115.316406 340.761719 115.636719 340.628906 C 115.960938 340.496094 116.265625 340.335938 116.550781 340.140625 C 116.839844 339.949219 117.109375 339.730469 117.355469 339.484375 C 117.601562 339.238281 117.820312 338.972656 118.011719 338.683594 C 118.203125 338.394531 118.367188 338.089844 118.5 337.769531 C 118.632812 337.445312 118.734375 337.117188 118.800781 336.777344 C 118.871094 336.433594 118.902344 336.089844 118.902344 335.742188 L 118.902344 325.167969 L 112.703125 325.167969 C 109.984375 325.175781 107.292969 324.914062 104.625 324.386719 C 101.957031 323.859375 99.363281 323.078125 96.851562 322.035156 C 94.339844 320.996094 91.953125 319.71875 89.695312 318.203125 C 87.4375 316.6875 85.347656 314.96875 83.429688 313.039062 Z M 83.429688 313.039062 " fill-opacity="1" fill-rule="nonzero"/></g><g clip-path="url(#8f44aa0650)"><path fill="#2a3634" d="M 71.304688 330.453125 C 71.304688 331.148438 71.238281 331.835938 71.101562 332.519531 C 70.964844 333.199219 70.765625 333.859375 70.5 334.503906 C 70.234375 335.144531 69.90625 335.753906 69.519531 336.332031 C 69.136719 336.910156 68.695312 337.441406 68.207031 337.933594 C 67.714844 338.425781 67.179688 338.863281 66.601562 339.25 C 66.027344 339.636719 65.417969 339.960938 64.773438 340.226562 C 64.132812 340.492188 63.472656 340.695312 62.789062 340.828125 C 62.109375 340.964844 61.421875 341.03125 60.726562 341.03125 C 60.03125 341.03125 59.34375 340.964844 58.664062 340.828125 C 57.980469 340.695312 57.320312 340.492188 56.679688 340.226562 C 56.035156 339.960938 55.425781 339.636719 54.851562 339.25 C 54.273438 338.863281 53.738281 338.425781 53.246094 337.933594 C 52.757812 337.441406 52.316406 336.910156 51.929688 336.332031 C 51.546875 335.753906 51.21875 335.144531 50.953125 334.503906 C 50.6875 333.859375 50.488281 333.199219 50.351562 332.519531 C 50.214844 331.835938 50.148438 331.148438 50.148438 330.453125 C 50.148438 329.761719 50.214844 329.074219 50.351562 328.390625 C 50.488281 327.710938 50.6875 327.046875 50.953125 326.40625 C 51.21875 325.765625 51.546875 325.15625 51.929688 324.578125 C 52.316406 324 52.757812 323.464844 53.246094 322.976562 C 53.738281 322.484375 54.273438 322.046875 54.851562 321.660156 C 55.425781 321.273438 56.035156 320.949219 56.679688 320.683594 C 57.320312 320.417969 57.980469 320.214844 58.664062 320.082031 C 59.34375 319.945312 60.03125 319.878906 60.726562 319.878906 C 61.421875 319.878906 62.109375 319.945312 62.789062 320.082031 C 63.472656 320.214844 64.132812 320.417969 64.773438 320.683594 C 65.417969 320.949219 66.027344 321.273438 66.601562 321.660156 C 67.179688 322.046875 67.714844 322.484375 68.207031 322.976562 C 68.695312 323.464844 69.136719 324 69.519531 324.578125 C 69.90625 325.15625 70.234375 325.765625 70.5 326.40625 C 70.765625 327.046875 70.964844 327.710938 71.101562 328.390625 C 71.238281 329.074219 71.304688 329.761719 71.304688 330.453125 Z M 71.304688 330.453125 " fill-opacity="1" fill-rule="nonzero"/></g></svg>